<svg width="250" height="53" viewBox="0 0 250 53" fill="none" xmlns="http://www.w3.org/2000/svg">
<path d="M62.8246 25.9093C62.3646 27.5523 61.5102 28.7845 60.2616 29.606C59.013 30.411 57.4932 30.8135 55.7024 30.8135C54.0595 30.8135 52.6383 30.485 51.4389 29.8278C50.2396 29.1542 49.3195 28.193 48.6788 26.9444C48.038 25.6793 47.7177 24.176 47.7177 22.4345C47.7177 20.7094 48.038 19.2143 48.6788 17.9492C49.3195 16.6841 50.2396 15.723 51.4389 15.0658C52.6383 14.3922 54.0512 14.0554 55.6778 14.0554C57.4522 14.0554 58.9555 14.4333 60.1877 15.1891C61.4199 15.9284 62.2331 17.0456 62.6275 18.5407L58.9062 20.044C58.6762 19.0582 58.3229 18.3682 57.8465 17.9739C57.37 17.5796 56.6964 17.3824 55.8256 17.3824C54.6263 17.3824 53.698 17.8178 53.0408 18.6885C52.3836 19.5429 52.055 20.7915 52.055 22.4345C52.055 24.0774 52.3672 25.3343 52.9915 26.2051C53.6323 27.0594 54.5523 27.4866 55.7517 27.4866C56.6553 27.4866 57.37 27.273 57.8957 26.8458C58.4215 26.4186 58.7829 25.745 58.9801 24.825L62.8246 25.9093Z" fill="#111111"/>
<path d="M72.4769 14.0554C74.1199 14.0554 75.5328 14.3922 76.7157 15.0658C77.9151 15.723 78.8351 16.6841 79.4759 17.9492C80.1166 19.1979 80.437 20.693 80.437 22.4345C80.437 24.176 80.1166 25.6793 79.4759 26.9444C78.8351 28.193 77.9151 29.1542 76.7157 29.8278C75.5328 30.485 74.1199 30.8135 72.4769 30.8135C70.8339 30.8135 69.4128 30.485 68.2134 29.8278C67.0141 29.1542 66.094 28.193 65.4533 26.9444C64.8125 25.6793 64.4921 24.176 64.4921 22.4345C64.4921 20.693 64.8125 19.1979 65.4533 17.9492C66.094 16.6841 67.0141 15.723 68.2134 15.0658C69.4128 14.3922 70.8339 14.0554 72.4769 14.0554ZM72.4769 17.3824C71.294 17.3824 70.3903 17.8096 69.766 18.6639C69.1417 19.5182 68.8295 20.7751 68.8295 22.4345C68.8295 24.0939 69.1417 25.3507 69.766 26.2051C70.3903 27.0594 71.294 27.4866 72.4769 27.4866C73.6598 27.4866 74.5552 27.0594 75.1631 26.2051C75.7875 25.3507 76.0996 24.0939 76.0996 22.4345C76.0996 20.7751 75.7875 19.5182 75.1631 18.6639C74.5552 17.8096 73.6598 17.3824 72.4769 17.3824Z" fill="#111111"/>
<path d="M98.0159 30.5671H93.3088L88.2568 21.7691L87.0245 19.3047H86.9999L87.0985 22.3606V30.5671H83.3525V14.3019H88.0596L93.1117 23.0999L94.3439 25.5643H94.3686L94.27 22.5084V14.3019H98.0159V30.5671Z" fill="#111111"/>
<path d="M107.977 14.0554C109.522 14.0554 110.836 14.2854 111.92 14.7455C113.021 15.2055 114.04 15.953 114.976 16.9881L112.586 19.7483C112.044 18.9268 111.403 18.3271 110.664 17.9492C109.941 17.5549 109.07 17.3578 108.051 17.3578C107.197 17.3578 106.54 17.5056 106.08 17.8014C105.62 18.0971 105.39 18.4914 105.39 18.9843C105.39 19.395 105.628 19.7318 106.104 19.9947C106.597 20.2411 107.427 20.4712 108.594 20.6847C110.844 21.0955 112.446 21.6952 113.399 22.4838C114.368 23.2724 114.853 24.3814 114.853 25.8108C114.853 26.8458 114.557 27.7412 113.966 28.497C113.375 29.2527 112.553 29.8278 111.502 30.2221C110.466 30.6164 109.292 30.8135 107.977 30.8135C106.137 30.8135 104.642 30.5917 103.492 30.1482C102.342 29.6881 101.348 28.9899 100.51 28.0534L102.679 25.0961C103.32 25.9833 104.043 26.6076 104.848 26.969C105.653 27.3305 106.622 27.5112 107.756 27.5112C108.659 27.5112 109.333 27.388 109.776 27.1415C110.236 26.8787 110.466 26.509 110.466 26.0326C110.466 25.6547 110.22 25.3507 109.727 25.1207C109.251 24.8743 108.446 24.6443 107.312 24.4307C105.916 24.1514 104.757 23.8228 103.837 23.4449C102.934 23.0506 102.227 22.5248 101.718 21.8677C101.225 21.2105 100.978 20.3726 100.978 19.3539C100.978 18.3353 101.25 17.4235 101.792 16.6184C102.35 15.8134 103.155 15.1891 104.207 14.7455C105.275 14.2854 106.532 14.0554 107.977 14.0554Z" fill="#111111"/>
<path d="M130.868 17.5796H125.569V30.5671H121.331V17.5796H116.007V14.3019H130.868V17.5796Z" fill="#111111"/>
<path d="M139.994 24.6278H137.456V30.5671H133.291V14.3019H141.054C143.025 14.3019 144.537 14.7455 145.588 15.6327C146.656 16.5198 147.19 17.8014 147.19 19.4772C147.19 20.6601 146.919 21.6459 146.377 22.4345C145.835 23.2231 145.046 23.8063 144.011 24.1842L148.151 30.5671H143.469L139.994 24.6278ZM137.456 21.6212H140.339C141.243 21.6212 141.9 21.4569 142.311 21.1283C142.722 20.7997 142.927 20.274 142.927 19.5511C142.927 18.8446 142.722 18.3271 142.311 17.9985C141.9 17.6699 141.243 17.5056 140.339 17.5056H137.456V21.6212Z" fill="#111111"/>
<path d="M164.526 23.9378C164.526 26.2215 163.919 27.9384 162.703 29.0884C161.487 30.2385 159.672 30.8135 157.256 30.8135C154.858 30.8135 153.042 30.2385 151.81 29.0884C150.594 27.9384 149.986 26.2215 149.986 23.9378V14.3019H154.25V24.0117C154.25 25.1782 154.496 26.049 154.989 26.624C155.482 27.199 156.238 27.4866 157.256 27.4866C159.294 27.4866 160.312 26.3283 160.312 24.0117V14.3019H164.526V23.9378Z" fill="#111111"/>
<path d="M182.268 25.9093C181.808 27.5523 180.953 28.7845 179.705 29.606C178.456 30.411 176.936 30.8135 175.145 30.8135C173.502 30.8135 172.081 30.485 170.882 29.8278C169.683 29.1542 168.763 28.193 168.122 26.9444C167.481 25.6793 167.161 24.176 167.161 22.4345C167.161 20.7094 167.481 19.2143 168.122 17.9492C168.763 16.6841 169.683 15.723 170.882 15.0658C172.081 14.3922 173.494 14.0554 175.121 14.0554C176.895 14.0554 178.399 14.4333 179.631 15.1891C180.863 15.9284 181.676 17.0456 182.071 18.5407L178.349 20.044C178.119 19.0582 177.766 18.3682 177.29 17.9739C176.813 17.5796 176.139 17.3824 175.269 17.3824C174.069 17.3824 173.141 17.8178 172.484 18.6885C171.827 19.5429 171.498 20.7915 171.498 22.4345C171.498 24.0774 171.81 25.3343 172.435 26.2051C173.075 27.0594 173.995 27.4866 175.195 27.4866C176.098 27.4866 176.813 27.273 177.339 26.8458C177.865 26.4186 178.226 25.745 178.423 24.825L182.268 25.9093Z" fill="#111111"/>
<path d="M198.303 17.5796H193.004V30.5671H188.765V17.5796H183.442V14.3019H198.303V17.5796Z" fill="#111111"/>
<path d="M207.347 14.0554C208.99 14.0554 210.403 14.3922 211.586 15.0658C212.785 15.723 213.705 16.6841 214.346 17.9492C214.986 19.1979 215.307 20.693 215.307 22.4345C215.307 24.176 214.986 25.6793 214.346 26.9444C213.705 28.193 212.785 29.1542 211.586 29.8278C210.403 30.485 208.99 30.8135 207.347 30.8135C205.704 30.8135 204.283 30.485 203.083 29.8278C201.884 29.1542 200.964 28.193 200.323 26.9444C199.682 25.6793 199.362 24.176 199.362 22.4345C199.362 20.693 199.682 19.1979 200.323 17.9492C200.964 16.6841 201.884 15.723 203.083 15.0658C204.283 14.3922 205.704 14.0554 207.347 14.0554ZM207.347 17.3824C206.164 17.3824 205.26 17.8096 204.636 18.6639C204.012 19.5182 203.699 20.7751 203.699 22.4345C203.699 24.0939 204.012 25.3507 204.636 26.2051C205.26 27.0594 206.164 27.4866 207.347 27.4866C208.53 27.4866 209.425 27.0594 210.033 26.2051C210.657 25.3507 210.969 24.0939 210.969 22.4345C210.969 20.7751 210.657 19.5182 210.033 18.6639C209.425 17.8096 208.53 17.3824 207.347 17.3824Z" fill="#111111"/>
<path d="M224.926 24.6278H222.387V30.5671H218.222V14.3019H225.985C227.957 14.3019 229.468 14.7455 230.52 15.6327C231.588 16.5198 232.122 17.8014 232.122 19.4772C232.122 20.6601 231.851 21.6459 231.308 22.4345C230.766 23.2231 229.978 23.8063 228.943 24.1842L233.083 30.5671H228.4L224.926 24.6278ZM222.387 21.6212H225.271C226.174 21.6212 226.831 21.4569 227.242 21.1283C227.653 20.7997 227.858 20.274 227.858 19.5511C227.858 18.8446 227.653 18.3271 227.242 17.9985C226.831 17.6699 226.174 17.5056 225.271 17.5056H222.387V21.6212Z" fill="#111111"/>
<path d="M244.529 26.8951H238.91L237.776 30.5671H233.513L239.23 14.3019H244.307L250 30.5671H245.638L244.529 26.8951ZM243.642 24.0117L242.459 20.1179L241.744 17.5549H241.695L241.03 20.0933L239.797 24.0117H243.642Z" fill="#111111"/>
<path d="M55.3081 36.1496C57.8547 36.1496 59.8016 36.8561 61.1488 38.2691C62.5124 39.6656 63.1943 41.67 63.1943 44.2823C63.1943 46.8946 62.5124 48.9072 61.1488 50.3201C59.8016 51.7166 57.8547 52.4149 55.3081 52.4149H48.4077V36.1496H55.3081ZM54.8891 49.2111C56.2528 49.2111 57.255 48.8004 57.8957 47.9789C58.5365 47.1574 58.8569 45.9252 58.8569 44.2823C58.8569 42.6393 58.5365 41.4071 57.8957 40.5856C57.255 39.7641 56.2528 39.3534 54.8891 39.3534H52.6465V49.2111H54.8891Z" fill="#111111"/>
<path d="M79.0843 49.1372V52.4149H66.0967V36.1496H78.7639V39.4273H70.3355V42.7297H77.0388V45.8102H70.3355V49.1372H79.0843Z" fill="#111111"/>
<path d="M94.0399 49.1372V52.4149H81.6438V36.1496H85.8826V49.1372H94.0399Z" fill="#111111"/>
<path d="M111.339 52.4149H106.361L100.57 36.1496H105.03L108.012 45.9827L108.899 49.1865L109.762 46.032L112.793 36.1496H117.106L111.339 52.4149Z" fill="#111111"/>
<path d="M126.578 48.7429H120.959L119.826 52.4149H115.562L121.28 36.1496H126.356L132.049 52.4149H127.687L126.578 48.7429ZM125.691 45.8595L124.508 41.9657L123.793 39.4027H123.744L123.079 41.9411L121.846 45.8595H125.691Z" fill="#111111"/>
<path d="M146.337 49.1372V52.4149H133.941V36.1496H138.18V49.1372H146.337Z" fill="#111111"/>
<path d="M161.162 49.1372V52.4149H148.766V36.1496H153.005V49.1372H161.162Z" fill="#111111"/>
<path d="M176.578 49.1372V52.4149H163.591V36.1496H176.258V39.4273H167.83V42.7297H174.533V45.8102H167.83V49.1372H176.578Z" fill="#111111"/>
<path d="M192.548 35.9032C194.092 35.9032 195.407 36.1332 196.491 36.5932C197.592 37.0533 198.61 37.8008 199.547 38.8359L197.156 41.596C196.614 40.7746 195.973 40.1749 195.234 39.797C194.511 39.4027 193.64 39.2055 192.622 39.2055C191.767 39.2055 191.11 39.3534 190.65 39.6491C190.19 39.9449 189.96 40.3392 189.96 40.8321C189.96 41.2428 190.198 41.5796 190.675 41.8425C191.168 42.0889 191.997 42.3189 193.164 42.5325C195.415 42.9433 197.017 43.5429 197.97 44.3316C198.939 45.1202 199.424 46.2292 199.424 47.6585C199.424 48.6936 199.128 49.589 198.536 50.3448C197.945 51.1005 197.123 51.6756 196.072 52.0699C195.037 52.4642 193.862 52.6613 192.548 52.6613C190.708 52.6613 189.213 52.4395 188.063 51.9959C186.912 51.5359 185.918 50.8377 185.081 49.9012L187.249 46.9439C187.89 47.8311 188.613 48.4554 189.418 48.8168C190.223 49.1783 191.192 49.359 192.326 49.359C193.23 49.359 193.903 49.2358 194.347 48.9893C194.807 48.7265 195.037 48.3568 195.037 47.8803C195.037 47.5025 194.79 47.1985 194.298 46.9685C193.821 46.7221 193.016 46.492 191.882 46.2785C190.486 45.9992 189.328 45.6706 188.408 45.2927C187.504 44.8984 186.797 44.3726 186.288 43.7155C185.795 43.0583 185.549 42.2204 185.549 41.2017C185.549 40.1831 185.82 39.2713 186.362 38.4662C186.921 37.6612 187.726 37.0368 188.777 36.5932C189.845 36.1332 191.102 35.9032 192.548 35.9032Z" fill="#111111"/>
<path d="M203.8 48.1761C204.572 48.1761 205.172 48.3732 205.599 48.7675C206.042 49.1618 206.264 49.7122 206.264 50.4187C206.264 51.1087 206.042 51.6509 205.599 52.0452C205.172 52.4395 204.572 52.6367 203.8 52.6367C203.028 52.6367 202.42 52.4395 201.976 52.0452C201.549 51.6509 201.335 51.1087 201.335 50.4187C201.335 49.7122 201.549 49.1618 201.976 48.7675C202.42 48.3732 203.028 48.1761 203.8 48.1761Z" fill="#111111"/>
<path d="M219.042 48.7429H213.423L212.29 52.4149H208.026L213.744 36.1496H218.821L224.513 52.4149H220.151L219.042 48.7429ZM218.155 45.8595L216.972 41.9657L216.258 39.4027H216.208L215.543 41.9411L214.311 45.8595H218.155Z" fill="#111111"/>
<path d="M228.733 48.1761C229.505 48.1761 230.105 48.3732 230.532 48.7675C230.976 49.1618 231.197 49.7122 231.197 50.4187C231.197 51.1087 230.976 51.6509 230.532 52.0452C230.105 52.4395 229.505 52.6367 228.733 52.6367C227.961 52.6367 227.353 52.4395 226.909 52.0452C226.482 51.6509 226.269 51.1087 226.269 50.4187C226.269 49.7122 226.482 49.1618 226.909 48.7675C227.353 48.3732 227.961 48.1761 228.733 48.1761Z" fill="#111111"/>
<g clip-path="url(#clip0)">
<path fill-rule="evenodd" clip-rule="evenodd" d="M12.2489 0L0 5.75952V29.3986L12.2489 31.8242V0Z" fill="#C1C1C1"/>
<path fill-rule="evenodd" clip-rule="evenodd" d="M12.2489 46.9798V52.4347H0V49.1001V46.0678L12.2489 46.9798ZM12.2489 40.0076V45.4628L0 44.5539V41.5216V38.4927L12.2489 40.0076ZM0 30.6119L12.2489 33.3395V38.493L0 36.6737V33.6431V30.6119Z" fill="#C1C1C1"/>
<path fill-rule="evenodd" clip-rule="evenodd" d="M13.6887 45.4629V40.3114L33.4999 42.7356V46.9799L13.6887 45.4629ZM13.6887 52.4347V46.9799L33.4999 48.1902V52.4344H13.6887V52.4347ZM13.6887 33.6432C21.2541 35.1582 27.7357 36.3708 33.4999 37.5818V41.8253L13.6887 38.7941V33.6432Z" fill="#FF19A7"/>
<path fill-rule="evenodd" clip-rule="evenodd" d="M13.6887 0V32.1259L33.4999 36.3708V5.75952L13.6887 0ZM15.4875 2.12228V30.9156L31.3389 34.2485V6.97182L15.4875 2.12228Z" fill="#FF19A7"/>
<path fill-rule="evenodd" clip-rule="evenodd" d="M17.2234 4.2782V29.4852L29.965 32.0932V8.04296L17.2234 4.2782Z" fill="#C1C1C1"/>
</g>
<defs>
<clipPath id="clip0">
<rect width="33.4999" height="52.4347" fill="white"/>
</clipPath>
</defs>
</svg>
