<?xml version="1.0" encoding="utf-8"?>
<!-- Generator: Adobe Illustrator 25.0.0, SVG Export Plug-In . SVG Version: 6.00 Build 0)  -->
<svg version="1.1" id="Capa_1" xmlns="http://www.w3.org/2000/svg" xmlns:xlink="http://www.w3.org/1999/xlink" x="0px" y="0px"
	 viewBox="0 0 280.6 80" style="enable-background:new 0 0 280.6 80;" xml:space="preserve">
<style type="text/css">
	.st0{fill-rule:evenodd;clip-rule:evenodd;fill:url(#SVGID_1_);}
	.st1{fill-rule:evenodd;clip-rule:evenodd;fill:url(#SVGID_2_);}
	.st2{fill-rule:evenodd;clip-rule:evenodd;fill:#B1B1B1;}
	.st3{fill-rule:evenodd;clip-rule:evenodd;fill:#FFFFFF;}
	.st4{fill-rule:evenodd;clip-rule:evenodd;fill:#575756;}
</style>
<linearGradient id="SVGID_1_" gradientUnits="userSpaceOnUse" x1="39.9772" y1="132.8706" x2="39.9772" y2="-26.6233">
	<stop  offset="0" style="stop-color:#0073A8"/>
	<stop  offset="0.5" style="stop-color:#0084C3"/>
	<stop  offset="1" style="stop-color:#31B7D3"/>
</linearGradient>
<path class="st0" d="M2.5,39.7V40c0,20.7,16.8,37.5,37.5,37.5c20.7,0,37.5-16.8,37.5-37.5l0,0c0-3.9-0.6-7.7-1.7-11.2l0,0
	c-20.9,5.3-25,33-34.2,39.5l0,0c-2.6-12.8-11.1-22.8-16.2-27.1l0,0c-6.5-5.4-13.2-9.9-21.5-10.8l0,0C3,33.3,2.5,36.4,2.5,39.7z"/>
<linearGradient id="SVGID_2_" gradientUnits="userSpaceOnUse" x1="40.5028" y1="57.0347" x2="40.5028" y2="7.1904">
	<stop  offset="0" style="stop-color:#289F39"/>
	<stop  offset="1" style="stop-color:#A9C119"/>
</linearGradient>
<path class="st1" d="M44,61.7L44,61.7c3.3-6.4,6-16.5,9.9-22.9l0,0c4.6-7.6,12.9-11,21.8-10.2l0,0C70.9,13.5,56.7,2.5,40,2.5l0,0
	c-14.9,0-27.8,8.7-33.8,21.4c10.3-4.7,26-6.2,33.4,6.4l0,0C43.7,37.3,44.5,47.9,44,61.7L44,61.7z M6.2,23.9c2-0.3,3.9-0.5,5.7-0.5
	l0,0c10.1,0,17.8,4.6,22.8,12l0,0c4,5.8,6.7,13.9,7.3,26.3l0,0c-2.2-12.2-6-20.9-10-25.8l0,0c-7.6-9.4-17.3-11.9-26.7-10
	C5.6,25.2,5.8,24.5,6.2,23.9L6.2,23.9z M6.1,23.9L6.1,23.9C6.1,23.9,6.1,23.9,6.1,23.9L6.1,23.9C6.2,23.8,6.2,23.9,6.1,23.9
	L6.1,23.9C6.1,23.9,6.1,23.9,6.1,23.9z"/>
<path class="st2" d="M40.7,2.5c17.9,0,33.1,11.8,38.2,28c0.7,3,1.1,6.2,1.1,9.5c0,14.7-7.9,27.5-19.7,34.4l-0.1,0.1
	c10.8-6.6,18-18.5,18-32.1l0,0c0-3.9-0.6-7.7-1.7-11.2l0,0c-20.9,5.3-25,33-34.2,39.5l0,0C39.6,57.9,31.1,47.8,26,43.6l0,0
	c-6.5-5.4-13.2-9.9-21.5-10.8l0,0c-0.8,3-1.3,6.1-1.3,9.4v0.3c0,20.7,16.8,37.5,37.5,37.5l-0.2,0c-0.1,0-0.3,0-0.4,0
	C22.1,80,6.9,68.2,1.8,52c-0.7-3.1-1.1-6.2-1.1-9.5C0.7,20.4,18.6,2.5,40.7,2.5L40.7,2.5z M40.7,80c0.3,0,0.6,0,0.9,0
	C41.3,79.9,41,80,40.7,80L40.7,80z M41.6,79.9c0.3,0,0.6,0,0.9,0C42.3,79.9,41.9,79.9,41.6,79.9L41.6,79.9z M42.6,79.9
	c0.3,0,0.6,0,0.9-0.1C43.2,79.9,42.9,79.9,42.6,79.9L42.6,79.9z M43.6,79.8c0.3,0,0.6,0,0.9-0.1C44.2,79.8,43.9,79.8,43.6,79.8
	L43.6,79.8z M44.5,79.8c0.3,0,0.6-0.1,0.9-0.1C45.1,79.7,44.8,79.7,44.5,79.8L44.5,79.8z M45.5,79.6c0.3,0,0.6-0.1,0.9-0.1
	C46.1,79.6,45.8,79.6,45.5,79.6L45.5,79.6z M46.4,79.5c0.3,0,0.6-0.1,0.9-0.1C47,79.4,46.7,79.5,46.4,79.5L46.4,79.5z M47.3,79.4
	c0.3-0.1,0.6-0.1,0.9-0.2C47.9,79.3,47.6,79.3,47.3,79.4L47.3,79.4z M48.2,79.2c0.3-0.1,0.6-0.1,0.9-0.2
	C48.8,79.1,48.5,79.1,48.2,79.2L48.2,79.2z M49.2,79c0.3-0.1,0.6-0.1,0.9-0.2C49.7,78.8,49.4,78.9,49.2,79L49.2,79z M50,78.8
	c0.3-0.1,0.6-0.1,0.8-0.2C50.6,78.6,50.3,78.7,50,78.8L50,78.8z M51,78.5c0.3-0.1,0.6-0.2,0.8-0.2C51.5,78.4,51.2,78.4,51,78.5
	L51,78.5z M51.8,78.3c0.3-0.1,0.6-0.2,0.8-0.3C52.4,78.1,52.1,78.2,51.8,78.3L51.8,78.3z M52.7,78c0.3-0.1,0.5-0.2,0.8-0.3
	C53.3,77.8,53,77.9,52.7,78L52.7,78z M53.6,77.7c0.3-0.1,0.5-0.2,0.8-0.3C54.1,77.5,53.9,77.6,53.6,77.7L53.6,77.7z M54.4,77.3
	c0.3-0.1,0.6-0.2,0.8-0.3C55,77.1,54.7,77.2,54.4,77.3L54.4,77.3z M55.3,77c0.3-0.1,0.5-0.2,0.8-0.4C55.8,76.8,55.5,76.9,55.3,77
	L55.3,77z M56.1,76.6c0.3-0.1,0.5-0.2,0.8-0.4C56.7,76.4,56.4,76.5,56.1,76.6L56.1,76.6z M56.9,76.3c0.3-0.1,0.5-0.3,0.8-0.4
	C57.5,76,57.2,76.1,56.9,76.3L56.9,76.3z M57.8,75.8c0.3-0.1,0.5-0.3,0.8-0.4C58.3,75.6,58,75.7,57.8,75.8L57.8,75.8z M58.6,75.4
	c0.3-0.1,0.5-0.3,0.8-0.4C59.1,75.1,58.8,75.3,58.6,75.4L58.6,75.4z M59.4,75c0.2-0.1,0.5-0.3,0.7-0.4C59.8,74.7,59.6,74.8,59.4,75
	L59.4,75z M44.7,64.2L44.7,64.2c3.3-6.4,6-16.5,9.9-22.9l0,0c4.6-7.6,12.9-11,21.8-10.2l0,0C71.6,16,57.4,4.9,40.7,4.9l0,0
	c-14.9,0-27.8,8.7-33.8,21.4c10.3-4.7,26-6.2,33.4,6.4l0,0C44.4,39.8,45.1,50.3,44.7,64.2L44.7,64.2z M6.8,26.3
	c-0.3,0.6-0.6,1.3-0.9,2c9.4-1.9,19.1,0.6,26.7,10l0,0c4,4.9,7.8,13.6,10,25.8l0,0c-0.6-12.4-3.4-20.5-7.3-26.3l0,0
	c-5-7.3-12.7-12-22.8-12l0,0C10.7,25.9,8.8,26,6.8,26.3L6.8,26.3z M6.8,26.4C6.8,26.3,6.8,26.3,6.8,26.4L6.8,26.4
	C6.8,26.3,6.8,26.3,6.8,26.4L6.8,26.4C6.8,26.3,6.8,26.3,6.8,26.4L6.8,26.4z"/>
<path class="st3" d="M40,0c22.1,0,40,17.9,40,40c0,22.1-17.9,40-40,40S0,62.1,0,40C0,17.9,17.9,0,40,0L40,0z M2.5,39.7V40
	c0,20.7,16.8,37.5,37.5,37.5c20.7,0,37.5-16.8,37.5-37.5l0,0c0-3.9-0.6-7.7-1.7-11.2l0,0c-20.9,5.3-25,33-34.2,39.5l0,0
	c-2.6-12.8-11.1-22.8-16.2-27.1l0,0c-6.5-5.4-13.2-9.9-21.5-10.8l0,0C3,33.3,2.5,36.4,2.5,39.7L2.5,39.7z M44,61.7L44,61.7
	c3.3-6.4,6-16.5,9.9-22.9l0,0c4.6-7.6,12.9-11,21.8-10.2l0,0C70.9,13.5,56.7,2.5,40,2.5l0,0c-14.9,0-27.8,8.7-33.8,21.4
	c10.3-4.7,26-6.2,33.4,6.4l0,0C43.7,37.3,44.5,47.9,44,61.7L44,61.7z M6.2,23.9c-0.3,0.6-0.6,1.3-0.9,2c9.4-1.9,19.1,0.6,26.7,10
	l0,0c4,4.9,7.8,13.6,10,25.8l0,0c-0.6-12.4-3.4-20.5-7.3-26.3l0,0c-5-7.3-12.7-12-22.8-12l0,0C10.1,23.4,8.1,23.6,6.2,23.9L6.2,23.9
	z M6.1,23.9C6.1,23.9,6.1,23.9,6.1,23.9L6.1,23.9C6.2,23.9,6.2,23.8,6.1,23.9L6.1,23.9C6.1,23.9,6.1,23.9,6.1,23.9L6.1,23.9z"/>
<g>
	<polygon class="st4" points="94.1,19.9 103.7,19.9 110.6,40.8 117.5,19.9 126.7,19.9 115,50.1 105.7,50.1 	"/>
	<polygon class="st4" points="129.5,19.9 154.2,19.9 154.2,26.8 138.4,26.8 138.4,31.5 152.7,31.5 152.7,38.4 138.4,38.4 
		138.4,43.2 154.6,43.2 154.6,50.1 129.5,50.1 	"/>
	<polygon class="st4" points="179.8,19.9 188,19.9 188,50.1 180.4,50.1 167.6,33.3 167.6,50.1 159.3,50.1 159.3,19.9 167,19.9 
		179.8,36.7 	"/>
	<polygon class="st4" points="193.5,19.9 218.2,19.9 218.2,26.8 202.5,26.8 202.5,31.5 216.7,31.5 216.7,38.4 202.5,38.4 
		202.5,43.2 218.6,43.2 218.6,50.1 193.5,50.1 	"/>
	<polygon class="st4" points="221.1,19.9 247.6,19.9 247.6,27 238.8,27 238.8,50.1 229.8,50.1 229.8,27 221.1,27 	"/>
	<path class="st4" d="M264.2,19.3c3.1,0,5.9,0.7,8.4,2c2.5,1.4,4.5,3.2,5.9,5.6c1.4,2.4,2.1,5,2.1,8c0,3-0.7,5.7-2.1,8.1
		c-1.4,2.4-3.4,4.3-5.9,5.6c-2.5,1.4-5.3,2-8.4,2c-3.1,0-5.9-0.7-8.4-2c-2.5-1.4-4.5-3.2-5.9-5.6c-1.4-2.4-2.1-5.1-2.1-8.1
		c0-3,0.7-5.6,2.1-8c1.4-2.4,3.4-4.2,5.9-5.6C258.2,20,261,19.3,264.2,19.3L264.2,19.3z M264.3,26.8c-1.3,0-2.6,0.4-3.7,1.1
		c-1.1,0.7-2,1.7-2.7,3c-0.7,1.3-1,2.6-1,4.2c0,1.5,0.3,2.9,1,4.2c0.7,1.3,1.6,2.3,2.7,3c1.1,0.7,2.4,1.1,3.7,1.1
		c1.3,0,2.5-0.4,3.6-1.1c1.1-0.7,2-1.7,2.6-3c0.6-1.3,0.9-2.7,0.9-4.2c0-1.5-0.3-2.9-0.9-4.2c-0.6-1.3-1.5-2.2-2.6-3
		C266.8,27.1,265.6,26.8,264.3,26.8z"/>
	<polygon class="st4" points="105.8,60.3 117.5,60.3 117.5,63.4 109.7,63.4 109.7,66.2 116.7,66.2 116.7,69.2 109.7,69.3 
		109.7,72.1 117.7,72.1 117.7,75.1 105.8,75.1 	"/>
	<path class="st4" d="M133.7,60.3c1.6,0,2.9,0.3,4.1,0.9c1.2,0.6,2.1,1.5,2.8,2.6c0.7,1.1,1,2.4,1,3.9c0,1.5-0.3,2.7-1,3.9
		c-0.7,1.1-1.6,2-2.8,2.6c-1.2,0.6-2.6,0.9-4.2,0.9h-6.2V60.3H133.7L133.7,60.3z M133.8,72c0.7,0,1.4-0.2,2-0.5
		c0.6-0.4,1-0.9,1.4-1.5c0.3-0.6,0.5-1.4,0.5-2.2c0-0.8-0.2-1.6-0.5-2.2c-0.3-0.6-0.8-1.2-1.4-1.5c-0.6-0.4-1.3-0.5-2.1-0.5h-2.4V72
		H133.8z"/>
	<rect x="150.8" y="60.3" class="st4" width="3.9" height="14.8"/>
	<polygon class="st4" points="164.8,60.3 175.9,60.3 175.9,63.4 168.7,63.4 168.7,66.7 175.4,66.7 175.4,69.8 168.7,69.8 
		168.7,75.1 164.8,75.1 	"/>
	<rect x="184.9" y="60.3" class="st4" width="3.9" height="14.8"/>
	<path class="st4" d="M209.7,65.3c-0.5-0.6-1.1-1.1-1.7-1.5c-0.7-0.4-1.3-0.5-2-0.5c-0.7,0-1.4,0.2-2,0.6c-0.6,0.4-1.1,0.9-1.5,1.5
		c-0.4,0.7-0.5,1.4-0.5,2.2c0,0.8,0.2,1.5,0.5,2.2c0.4,0.7,0.8,1.2,1.5,1.5c0.6,0.4,1.3,0.6,2,0.6c0.6,0,1.2-0.2,1.9-0.5
		c0.7-0.3,1.3-0.7,1.8-1.3l2.3,2.4c-0.8,0.8-1.8,1.5-2.9,2c-1.1,0.5-2.2,0.8-3.3,0.8c-1.5,0-2.8-0.3-4-1c-1.2-0.7-2.1-1.6-2.8-2.8
		c-0.7-1.2-1-2.5-1-3.9c0-1.4,0.3-2.7,1-3.9c0.7-1.2,1.6-2.1,2.8-2.7c1.2-0.7,2.6-1,4.1-1c1.1,0,2.2,0.2,3.3,0.7
		c1.1,0.5,2,1.1,2.7,1.9L209.7,65.3z"/>
	<rect x="220.9" y="60.3" class="st4" width="3.9" height="14.8"/>
	<path class="st4" d="M242,60.1c1.5,0,2.9,0.3,4.1,1c1.2,0.7,2.2,1.6,2.9,2.7c0.7,1.2,1,2.5,1,3.9c0,1.5-0.3,2.8-1,3.9
		c-0.7,1.2-1.7,2.1-2.9,2.8c-1.2,0.7-2.6,1-4.1,1c-1.5,0-2.9-0.3-4.1-1c-1.2-0.7-2.2-1.6-2.9-2.8c-0.7-1.2-1-2.5-1-4
		c0-1.4,0.3-2.7,1-3.9c0.7-1.2,1.7-2.1,2.9-2.7C239.1,60.4,240.4,60.1,242,60.1L242,60.1z M242,63.3c-0.7,0-1.4,0.2-2,0.6
		c-0.6,0.4-1.1,0.9-1.5,1.6c-0.4,0.7-0.6,1.4-0.6,2.2c0,0.8,0.2,1.6,0.6,2.2c0.4,0.7,0.9,1.2,1.5,1.6c0.6,0.4,1.3,0.6,2,0.6
		c0.7,0,1.4-0.2,2-0.6c0.6-0.4,1.1-0.9,1.5-1.6c0.4-0.7,0.5-1.4,0.5-2.2c0-0.8-0.2-1.5-0.5-2.2c-0.4-0.7-0.8-1.2-1.5-1.6
		C243.4,63.5,242.7,63.3,242,63.3z"/>
	<path class="st4" d="M269.4,64.8c-0.8-0.5-1.6-0.8-2.5-1.1c-0.9-0.3-1.6-0.4-2.3-0.4c-0.5,0-0.9,0.1-1.1,0.3
		c-0.3,0.2-0.4,0.4-0.4,0.8c0,0.3,0.1,0.6,0.4,0.8c0.2,0.2,0.5,0.4,0.9,0.5c0.4,0.1,0.9,0.3,1.6,0.5c1,0.3,1.9,0.6,2.6,0.9
		c0.7,0.3,1.2,0.8,1.7,1.4c0.5,0.6,0.7,1.4,0.7,2.4c0,1-0.3,1.8-0.8,2.5c-0.5,0.7-1.2,1.2-2.1,1.6s-1.9,0.5-3,0.5
		c-1.2,0-2.5-0.2-3.7-0.6c-1.2-0.4-2.3-1-3.2-1.8l1.5-3c0.7,0.7,1.6,1.2,2.7,1.6c1,0.4,1.9,0.6,2.7,0.6c0.6,0,1-0.1,1.4-0.3
		c0.3-0.2,0.5-0.5,0.5-0.9c0-0.3-0.1-0.6-0.4-0.8c-0.2-0.2-0.6-0.4-0.9-0.5c-0.4-0.1-0.9-0.3-1.6-0.5c-1-0.3-1.9-0.6-2.5-0.9
		c-0.7-0.3-1.2-0.7-1.7-1.3c-0.5-0.6-0.7-1.4-0.7-2.3c0-0.9,0.2-1.7,0.7-2.4c0.5-0.7,1.2-1.2,2.1-1.6c0.9-0.4,1.9-0.6,3.1-0.6
		c1.1,0,2.1,0.2,3.2,0.5c1,0.3,2,0.7,2.8,1.2L269.4,64.8z"/>
</g>
</svg>
